<svg xmlns="http://www.w3.org/2000/svg" width="23.857" height="23.719" viewBox="0 0 23.857 23.719">
  <g id="Group_5353" data-name="Group 5353" transform="translate(-445.177 -487.338)">
    <path id="Path_7377" data-name="Path 7377" d="M469.714,504.786c0,.112,0,.224,0,.336,0,1.02-.4,1.427-1.4,1.482a2.522,2.522,0,0,0-.6.184,2.44,2.44,0,0,0,.3.552,1.234,1.234,0,0,1-.025,1.992c-.249.253-.494.511-.755.751a1.179,1.179,0,0,1-1.748-.01,4.109,4.109,0,0,0-.321-.312c-.261-.19-.458-.154-.5.2-.021.166,0,.337-.013.5a1.2,1.2,0,0,1-1.23,1.2c-.373.021-.747.013-1.121.005-.919-.02-1.344-.46-1.389-1.391a2.762,2.762,0,0,0-.165-.6,2.47,2.47,0,0,0-.548.3,1.245,1.245,0,0,1-1.994-.023c-.253-.249-.51-.494-.75-.755a1.178,1.178,0,0,1,.007-1.746c.089-.1.193-.179.274-.28.249-.31.171-.514-.219-.565-.129-.017-.261,0-.392-.01a1.214,1.214,0,0,1-1.266-1.326c-.007-.336-.006-.672,0-1.008a1.275,1.275,0,0,1,1.392-1.392,2.785,2.785,0,0,0,.6-.163,2.491,2.491,0,0,0-.3-.549,1.236,1.236,0,0,1,.029-1.993c.21-.212.421-.424.634-.634a1.209,1.209,0,0,1,1.947-.025c.094.09.189.257.281.256a.792.792,0,0,0,.449-.189c.057-.047.016-.213.02-.325.031-.99.469-1.417,1.46-1.422.3,0,.6,0,.9,0a1.254,1.254,0,0,1,1.389,1.331,3.727,3.727,0,0,0,.165.663,2.978,2.978,0,0,0,.589-.335,1.209,1.209,0,0,1,1.912.022c.228.222.452.447.674.673a1.218,1.218,0,0,1,.033,1.948,2.455,2.455,0,0,0-.231.242c-.19.268-.143.452.205.5a1.873,1.873,0,0,0,.224,0c1.059.028,1.48.459,1.484,1.519C469.715,504.524,469.714,504.655,469.714,504.786Zm-10.686-4.99a6.1,6.1,0,0,1-.527.76c-.563.6-.574.586-.041,1.174a1.164,1.164,0,0,1,.286,1.286,1.22,1.22,0,0,1-1.1.814c-.83.086-.83.084-.83.926a2.073,2.073,0,0,1,0,.28c-.066.48.114.653.619.659a1.735,1.735,0,0,1,1.014.34,1.168,1.168,0,0,1-.025,1.782c-.153.169-.4.5-.355.559a5.151,5.151,0,0,0,1.043,1.066c.088.064.475-.236.692-.41a1.24,1.24,0,0,1,2.059.738c.056.3-.008.756.165.875.233.161.644.066.978.08.056,0,.113-.006.168,0,.429.057.566-.144.533-.551a1.261,1.261,0,0,1,2.256-.957c.118.123.392.3.442.256a5.982,5.982,0,0,0,1.073-1.036c.064-.086-.223-.477-.395-.69a1.2,1.2,0,0,1-.228-1.35,1.124,1.124,0,0,1,1.1-.718c.957.031.788-.12.8-.853a2.6,2.6,0,0,1,0-.336c.077-.514-.129-.683-.65-.667a1.218,1.218,0,0,1-1.362-1.062,1.305,1.305,0,0,1,.552-1.218c.286-.248.327-.481.014-.736a3.781,3.781,0,0,1-.278-.277c-.617-.618-.617-.619-1.281-.059a1.179,1.179,0,0,1-1.3.213,1.194,1.194,0,0,1-.746-1.037c-.092-.878-.089-.878-1-.876a3.11,3.11,0,0,1-.337,0c-.4-.042-.537.142-.5.525a1.251,1.251,0,0,1-.734,1.38,1.265,1.265,0,0,1-1.549-.429A6.5,6.5,0,0,0,459.029,499.8Z" transform="translate(-5.685 -5.583)" fill="#5832e0"/>
    <path id="Path_7378" data-name="Path 7378" d="M474.46,523.6a5.21,5.21,0,0,1,.819.73.822.822,0,0,1,.127.7c-.165.307-.464.2-.71,0q-.81-.69-1.633-1.366a.538.538,0,0,1-.056-.869c.433-.514.868-1.026,1.3-1.543.218-.262.51-.426.746-.133.116.144.052.507-.041.725-.1.238-.329.422-.465.664a9.272,9.272,0,0,0,5.888-4.718,20.53,20.53,0,0,0,1.075-3.095c.111-.337.061-.849.615-.732.524.111.376.586.31.931a10.649,10.649,0,0,1-6.21,8.03C475.674,523.184,475.086,523.363,474.46,523.6Z" transform="translate(-14.719 -14.171)" fill="#5832e0"/>
    <path id="Path_7379" data-name="Path 7379" d="M482.813,497.613a6.021,6.021,0,0,1,.57-.953c.136-.158.417-.19.632-.279.056.241.231.538.148.714-.318.672-.714,1.309-1.091,1.952a.467.467,0,0,1-.712.189c-.631-.363-1.265-.718-1.894-1.083-.277-.161-.451-.424-.211-.681a.792.792,0,0,1,.664-.115,4.85,4.85,0,0,1,.93.508c-.221-.632-.358-1.141-.571-1.616a9.826,9.826,0,0,0-7.095-5.785c-.218-.051-.538-.291-.554-.466-.043-.467.306-.508.689-.428a10.523,10.523,0,0,1,7.452,5.563C482.181,495.9,482.45,496.738,482.813,497.613Z" transform="translate(-15.151 -1.171)" fill="#5832e0"/>
    <path id="Path_7380" data-name="Path 7380" d="M455.441,488.624a6.14,6.14,0,0,1-1.1-.439c-.172-.113-.238-.389-.352-.593.217-.089.468-.3.646-.246.714.2,1.4.491,2.105.744a.5.5,0,0,1,.323.717c-.239.686-.468,1.378-.766,2.038-.075.168-.391.227-.6.336-.088-.2-.266-.415-.244-.6a5.217,5.217,0,0,1,.33-1.017,4.91,4.91,0,0,0-.51.134,9.7,9.7,0,0,0-6.38,7.6c-.064.326-.144.684-.562.62-.438-.067-.445-.414-.37-.785a10.7,10.7,0,0,1,7.02-8.326Z" transform="translate(-1.468)" fill="#5832e0"/>
    <path id="Path_7381" data-name="Path 7381" d="M446.593,515.381a5.109,5.109,0,0,1-.667.861c-.157.131-.441.108-.668.155-.02-.233-.141-.531-.042-.689a15.181,15.181,0,0,1,1.319-1.808.739.739,0,0,1,.706-.106,14.271,14.271,0,0,1,1.768,1.278c.145.122.124.441.18.67-.231.028-.5.142-.684.063-.316-.134-.581-.39-.976-.539.139.43.25.871.421,1.289a9.756,9.756,0,0,0,6.731,5.976c.357.1.76.153.63.649-.134.513-.554.342-.88.248a10.66,10.66,0,0,1-7.752-7.788C446.663,515.587,446.644,515.536,446.593,515.381Z" transform="translate(0 -14.064)" fill="#5832e0"/>
    <path id="Path_7382" data-name="Path 7382" d="M467.628,506.919a2.659,2.659,0,0,1,2.683,2.655,2.68,2.68,0,1,1-5.36.007A2.659,2.659,0,0,1,467.628,506.919Zm.015,4.408a1.726,1.726,0,0,0,1.735-1.749,1.747,1.747,0,1,0-3.494.024A1.727,1.727,0,0,0,467.643,511.327Z" transform="translate(-10.531 -10.428)" fill="#5832e0"/>
  </g>
</svg>
