<svg xmlns="http://www.w3.org/2000/svg" width="23.858" height="23.324" viewBox="0 0 23.858 23.324">
  <g id="Group_5355" data-name="Group 5355" transform="translate(-674.954 -707.086)">
    <path id="Path_7387" data-name="Path 7387" d="M691.736,728.54c0,.318.009.571,0,.825a1.02,1.02,0,0,1-1.061,1.041q-7.327.007-14.653,0a1.026,1.026,0,0,1-1.06-1.169q-.005-4.366,0-8.732c0-2.527.005-5.054,0-7.581a1.256,1.256,0,0,1,.345-.918q2.064-2.268,4.1-4.563a.985.985,0,0,1,.813-.357c3.436.01,6.872.006,10.308.007.834,0,1.217.384,1.22,1.228,0,1.433,0,2.867,0,4.351.172.008.322.021.471.021,1.675,0,3.351,0,5.026,0a1.4,1.4,0,0,1,1.575,1.573q0,6.344,0,12.688a1.412,1.412,0,0,1-1.608,1.585q-2.449,0-4.9,0ZM680,708.1a.926.926,0,0,0-.129.094c-1.273,1.451-2.549,2.9-3.811,4.361a.822.822,0,0,0-.157.5c-.007,1.419.01,2.838.009,4.257,0,3.889,0,7.778-.025,11.667,0,.416.121.516.524.514,4.557-.014,9.114-.008,13.671-.008.766,0,.767,0,.723-.762a.973.973,0,0,0-.053-.183c-.731,0-1.453,0-2.175,0A1.413,1.413,0,0,1,687,726.952q0-6.325,0-12.649a1.427,1.427,0,0,1,1.632-1.609c.706,0,1.412,0,2.146,0,.01-.184.024-.321.024-.459,0-1.249-.013-2.5.009-3.748.006-.371-.092-.483-.474-.48-3,.016-5.991.008-8.986.009-.137,0-.273.013-.444.022v.5q0,2.066,0,4.131c0,.537-.115.656-.644.658q-1.533,0-3.066,0a2.87,2.87,0,0,1-.321-.036v-.953H680Zm17.891,12.515q0-3.127,0-6.253c0-.637-.107-.746-.737-.746h-8.473c-.632,0-.751.116-.748.74.006,1.291.026,2.582.025,3.873,0,2.937-.018,5.874-.026,8.811a.509.509,0,0,0,.575.577q4.407,0,8.814,0a.5.5,0,0,0,.572-.573Q697.885,723.831,697.886,720.616Z" transform="translate(0)" fill="#5832e0"/>
    <path id="Path_7388" data-name="Path 7388" d="M720.139,800.406c-.122.187-.2.333-.306.464q-1.48,1.888-2.967,3.772l-3.421,4.34c-.044.056-.086.113-.13.168a.456.456,0,0,1-.7.127c-.265-.211-.209-.468-.018-.711l2.422-3.074q2.038-2.586,4.076-5.171c.079-.1.149-.243.253-.278a.779.779,0,0,1,.508-.026C719.98,800.068,720.043,800.263,720.139,800.406Z" transform="translate(-34.288 -84.983)" fill="#5832e0"/>
    <path id="Path_7389" data-name="Path 7389" d="M716.485,801.313a1.97,1.97,0,0,1-2.041,2.048,2.025,2.025,0,1,1,2.041-2.048Zm-1.955,1.087a1.068,1.068,0,0,0,1.033-1.124,1.1,1.1,0,0,0-2.193.082A1.079,1.079,0,0,0,714.531,802.4Z" transform="translate(-34.303 -84.368)" fill="#5832e0"/>
    <path id="Path_7390" data-name="Path 7390" d="M759.007,864.88a2.01,2.01,0,1,1-4.021,0,2.01,2.01,0,1,1,4.021,0Zm-2.013-1.085a1.091,1.091,0,1,0,1.092,1.074A1.086,1.086,0,0,0,756.993,863.795Z" transform="translate(-73.214 -142.493)" fill="#5832e0"/>
    <path id="Path_7391" data-name="Path 7391" d="M845.13,801.8c-1.077,0-2.153,0-3.23,0-.548,0-.632-.11-.628-.65.007-.823,0-1.646,0-2.469,0-.492.141-.632.635-.632q3.236,0,6.471,0c.486,0,.617.144.621.645q.011,1.255.02,2.51c0,.452-.184.623-.66.622-1.076,0-2.152,0-3.229,0Zm-2.948-.968c.183,0,.321,0,.46,0,.551,0,1.1-.013,1.654-.013,1.191,0,2.381.011,3.572,0,.085,0,.24-.125.243-.2.021-.518.011-1.037.011-1.565h-5.941Z" transform="translate(-152.148 -83.207)" fill="#5832e0"/>
    <path id="Path_7392" data-name="Path 7392" d="M911.672,887.271h-1.221v-1.538h1.221Z" transform="translate(-215.435 -163.428)" fill="#5832e0"/>
    <path id="Path_7393" data-name="Path 7393" d="M877.789,885.681h1.22v1.528h-1.22Z" transform="translate(-185.556 -163.38)" fill="#5832e0"/>
    <path id="Path_7394" data-name="Path 7394" d="M877.587,853.17h1.234v1.516h-1.234Z" transform="translate(-185.371 -133.639)" fill="#5832e0"/>
    <path id="Path_7395" data-name="Path 7395" d="M910.2,852.9h1.246v1.534H910.2Z" transform="translate(-215.204 -133.388)" fill="#5832e0"/>
    <path id="Path_7396" data-name="Path 7396" d="M846.311,887.215h-1.12v-1.538h1.12Z" transform="translate(-155.735 -163.377)" fill="#5832e0"/>
    <path id="Path_7397" data-name="Path 7397" d="M877.653,922.944h1.219v1.421h-1.219Z" transform="translate(-185.431 -197.469)" fill="#5832e0"/>
    <path id="Path_7398" data-name="Path 7398" d="M911.626,924.591h-1.219v-1.42h1.219Z" transform="translate(-215.395 -197.677)" fill="#5832e0"/>
    <path id="Path_7399" data-name="Path 7399" d="M845.026,852.963h1.153V854.5h-1.153Z" transform="translate(-155.584 -133.45)" fill="#5832e0"/>
    <path id="Path_7400" data-name="Path 7400" d="M845.272,923.01h1.117v1.424h-1.117Z" transform="translate(-155.809 -197.529)" fill="#5832e0"/>
  </g>
</svg>
