<svg xmlns="http://www.w3.org/2000/svg" width="30" height="23.172" viewBox="0 0 30 23.172">
  <path id="Path_7374" data-name="Path 7374" d="M256,342.559c-1.036,1.079-2.062,2.168-3.112,3.233-1.447,1.468-2.893,2.937-4.384,4.358a4.4,4.4,0,0,1-1.243.586,5.689,5.689,0,0,1-.428-1.325c-.067-.927-.02-1.863-.02-2.916h-1.051q-5.386,0-10.772,0c-1.164,0-1.3-.136-1.3-1.288,0-.579,0-1.158,0-1.7l-5.552,5.537,5.553,5.563c0-.7,0-1.4,0-2.105a.814.814,0,0,1,.915-.929c2.061,0,4.121,0,6.182,0,.536,0,1.03.222.9.778a1.278,1.278,0,0,1-.975.687c-1.495.076-3,.033-4.494.033h-1.034c0,1.188.031,2.3-.021,3.412a1.061,1.061,0,0,1-.459.806,1.028,1.028,0,0,1-.894-.237c-2.535-2.5-5.043-5.024-7.553-7.547a2.376,2.376,0,0,1-.258-.384v-.187c1.234-1.278,2.46-2.565,3.706-3.832,1.27-1.292,2.539-2.584,3.855-3.828a3.928,3.928,0,0,1,1.175-.523,4.809,4.809,0,0,1,.431,1.23c.065.959.021,1.926.021,3.016h1.045q5.386,0,10.773,0c1.17,0,1.3.132,1.307,1.282,0,.58,0,1.159,0,1.686l5.569-5.551-5.57-5.521c0,.653-.014,1.324,0,1.994.019.711-.319,1.031-1.016,1.029q-3-.007-6,0c-.558,0-1.048-.142-1.027-.8.02-.6.492-.707,1.011-.7,1.8.009,3.608,0,5.527,0,0-1.193-.031-2.308.021-3.418a1.125,1.125,0,0,1,.465-.808.9.9,0,0,1,.824.182c2.591,2.573,5.154,5.173,7.722,7.769a1.437,1.437,0,0,1,.154.229Z" transform="translate(-226 -334.15)" fill="#5832e0"/>
</svg>
