<svg id="Group_4452" data-name="Group 4452" xmlns="http://www.w3.org/2000/svg" width="161.173" height="35.038" viewBox="0 0 161.173 35.038">
  <path id="Path_7402" data-name="Path 7402" d="M0,0H161.173V35.038H0Z" fill="rgba(22,5,5,0)"/>
  <g id="Group_5" data-name="Group 5" transform="translate(65.557 10.737)">
    <path id="Path_27" data-name="Path 27" d="M2374.532,2864.355a1.715,1.715,0,0,1,1.712,1.712v4.782a1.715,1.715,0,0,1-1.712,1.712h-6.65v-10.895h1.161v2.688Zm.552,6.495v-4.782a.555.555,0,0,0-.552-.552h-4.924a.555.555,0,0,0-.4.163.52.52,0,0,0-.169.389v4.782a.518.518,0,0,0,.169.389.553.553,0,0,0,.4.163h4.924a.556.556,0,0,0,.552-.552Z" transform="translate(-2367.882 -2861.667)" fill="#fff"/>
    <path id="Path_28" data-name="Path 28" d="M2672.353,2861.667h1.16v9.183a.556.556,0,0,0,.552.552h1.386v1.16h-1.386a1.715,1.715,0,0,1-1.712-1.712Z" transform="translate(-2662.944 -2861.667)" fill="#fff"/>
    <path id="Path_29" data-name="Path 29" d="M2807.3,2948.653h4.924a1.716,1.716,0,0,1,1.727,1.712v4.782a1.716,1.716,0,0,1-1.727,1.712H2807.3a1.715,1.715,0,0,1-1.712-1.712v-4.782a1.715,1.715,0,0,1,1.712-1.712Zm4.924,1.161H2807.3a.556.556,0,0,0-.552.552v4.782a.556.556,0,0,0,.552.552h4.924a.555.555,0,0,0,.552-.552v-4.782a.555.555,0,0,0-.552-.552Z" transform="translate(-2792.061 -2945.965)" fill="#fff"/>
    <path id="Path_30" data-name="Path 30" d="M3124.132,2955.7h6.65v1.16h-6.65a1.715,1.715,0,0,1-1.712-1.712v-4.782a1.715,1.715,0,0,1,1.712-1.712h6.622v1.161h-6.622a.556.556,0,0,0-.552.552v4.782a.556.556,0,0,0,.552.552Z" transform="translate(-3099.103 -2945.965)" fill="#fff"/>
    <path id="Path_31" data-name="Path 31" d="M3439.5,2864.355h1.528l-3.721,4.1,3.707,4.1H3439.5l-3.226-3.523h-2.263v3.523h-1.161v-10.895h1.161v6.211h2.263Z" transform="translate(-3399.938 -2861.667)" fill="#fff"/>
    <path id="Path_32" data-name="Path 32" d="M3728.961,2948.653h4.924a1.716,1.716,0,0,1,1.727,1.712v4.782a1.716,1.716,0,0,1-1.727,1.712h-4.924a1.715,1.715,0,0,1-1.712-1.712v-4.782a1.714,1.714,0,0,1,1.712-1.712Zm4.924,1.161h-4.924a.555.555,0,0,0-.552.552v4.782a.555.555,0,0,0,.552.552h4.924a.555.555,0,0,0,.552-.552v-4.782a.555.555,0,0,0-.552-.552Z" transform="translate(-3685.242 -2945.965)" fill="#fff"/>
    <path id="Path_33" data-name="Path 33" d="M4033.454,2948.653h1.358l-4.542,8.207h-1.344l-4.528-8.207h1.358l3.849,7.074Z" transform="translate(-3973.208 -2945.965)" fill="#fff"/>
    <path id="Path_34" data-name="Path 34" d="M4400.3,2861.667h1.16v1.16h-1.16Zm0,10.895v-8.207h1.16v8.207Z" transform="translate(-4337.494 -2861.667)" fill="#fff"/>
    <path id="Path_35" data-name="Path 35" d="M4495.527,2861.667h1.161v9.183a.556.556,0,0,0,.551.552h1.387v1.16h-1.387a1.715,1.715,0,0,1-1.712-1.712Z" transform="translate(-4429.778 -2861.667)" fill="#fff"/>
    <path id="Path_36" data-name="Path 36" d="M4633.8,2861.667h1.16v9.183a.556.556,0,0,0,.551.552h1.386v1.16h-1.386a1.715,1.715,0,0,1-1.711-1.712Z" transform="translate(-4563.78 -2861.667)" fill="#fff"/>
    <path id="Path_37" data-name="Path 37" d="M4771.379,2948.653a1.715,1.715,0,0,1,1.727,1.712v2.971h-7.2v1.811a.555.555,0,0,0,.551.552h6.65v1.16h-6.65a1.715,1.715,0,0,1-1.711-1.712v-4.782a1.714,1.714,0,0,1,1.711-1.712Zm-5.475,3.523h6.026v-1.811a.554.554,0,0,0-.551-.552h-4.924a.555.555,0,0,0-.551.552Z" transform="translate(-4690.676 -2945.965)" fill="#fff"/>
  </g>
  <path id="Path_38" data-name="Path 38" d="M1000.076,2786.256l-1.244-1.366-3.308,3.634h0l-4.779,5.249-6.84-7.514,0,0-9.33-10.25L967,2784.323V2776h-1.76v10.259h0l9.331,10.25,8.084-8.881,8.085,8.881Zm-25.5,7.517-6.842-7.517,6.842-7.516,6.84,7.514,0,0,0,0Z" transform="translate(-952.073 -2768.726)" fill="#fff"/>
  <path id="Path_39" data-name="Path 39" d="M1575.88,2778.752l5.6,5.6,1.244-1.244-6.842-6.842-6.842,6.842,1.244,1.244Z" transform="translate(-1537.129 -2768.451)" fill="#fff" opacity="0.58"/>
</svg>
