<svg xmlns="http://www.w3.org/2000/svg" width="21.526" height="22.984" viewBox="0 0 21.526 22.984">
  <g id="Navigations" transform="translate(-1168.474 -14.5)">
    <g id="Group_4866" data-name="Group 4866" transform="translate(1168.998 15)">
      <path id="Path" d="M15.9,15.183h0l-.039-4.846c0-4.439-2.792-7.9-6.593-8.267V.808a.776.776,0,1,0-1.551,0V2.07c-3.954.405-6.593,3.987-6.593,8.1v5.05a2.045,2.045,0,0,0,.892,3.869H5.082a3.46,3.46,0,0,0,6.826,0h3.18A2.047,2.047,0,0,0,15.9,15.183Z" fill="none" stroke="#fff" stroke-width="1"/>
      <path id="Path-2" data-name="Path" d="M1.784,1.262A1.917,1.917,0,0,1,0,0H3.607A2.009,2.009,0,0,1,1.784,1.262Z" transform="translate(6.711 19.093)" fill="none" stroke="#fff" stroke-width="1"/>
    </g>
    <circle id="Ellipse_260" data-name="Ellipse 260" cx="5" cy="5" r="5" transform="translate(1180 17)" fill="#65e55c"/>
  </g>
</svg>
